/* XPM */
static char * maximize_pressed_xpm[] = {
"33 43 2 1",
" 	c #338CA0",
".	c #000000",
"                                 ",
"                                 ",
"                                 ",
"                                 ",
"                                 ",
"                                 ",
"                                 ",
"                                 ",
"                                 ",
"                                 ",
"                                 ",
"                                 ",
"                                 ",
"                                 ",
"                                 ",
"                                 ",
"                                 ",
"                                 ",
"                                 ",
"            .........            ",
"            .........            ",
"            ..     ..            ",
"            ..     ..            ",
"            ..     ..            ",
"            ..     ..            ",
"            ..     ..            ",
"            .........            ",
"            .........            ",
"                                 ",
"                                 ",
"                                 ",
"                                 ",
"                                 ",
"                                 ",
"                                 ",
"                                 ",
"                                 ",
"                                 ",
"                                 ",
"                                 ",
"                                 ",
"                                 ",
"                                 "};
